<svg xmlns="http://www.w3.org/2000/svg" viewBox="0 0 950 500">
  <rect width="950" height="500" fill="#fff"/>
  <rect width="950" height="38.46" y="0" fill="#B22234"/>
  <rect width="950" height="38.46" y="76.92" fill="#B22234"/>
  <rect width="950" height="38.46" y="153.84" fill="#B22234"/>
  <rect width="950" height="38.46" y="230.76" fill="#B22234"/>
  <rect width="950" height="38.46" y="307.68" fill="#B22234"/>
  <rect width="950" height="38.46" y="384.60" fill="#B22234"/>
  <rect width="950" height="38.46" y="461.52" fill="#B22234"/>
  <rect width="380" height="269.23" fill="#3C3B6E"/>
  <g fill="#fff">
    <polygon points="31.66,13.46 35.84,26.08 49.58,26.08 38.53,33.84 42.71,46.46 31.66,38.70 20.61,46.46 24.79,33.84 13.74,26.08 27.48,26.08"/>
    <polygon points="95.00,13.46 99.18,26.08 112.92,26.08 101.87,33.84 106.05,46.46 95.00,38.70 83.95,46.46 88.13,33.84 77.08,26.08 90.82,26.08"/>
    <polygon points="158.33,13.46 162.51,26.08 176.25,26.08 165.20,33.84 169.38,46.46 158.33,38.70 147.28,46.46 151.46,33.84 140.41,26.08 154.15,26.08"/>
    <polygon points="221.66,13.46 225.84,26.08 239.58,26.08 228.53,33.84 232.71,46.46 221.66,38.70 210.61,46.46 214.79,33.84 203.74,26.08 217.48,26.08"/>
    <polygon points="285.00,13.46 289.18,26.08 302.92,26.08 291.87,33.84 296.05,46.46 285.00,38.70 273.95,46.46 278.13,33.84 267.08,26.08 280.82,26.08"/>
    <polygon points="348.33,13.46 352.51,26.08 366.25,26.08 355.20,33.84 359.38,46.46 348.33,38.70 337.28,46.46 341.46,33.84 330.41,26.08 344.15,26.08"/>
    <polygon points="63.33,40.38 67.51,53.00 81.25,53.00 70.20,60.76 74.38,73.38 63.33,65.62 52.28,73.38 56.46,60.76 45.41,53.00 59.15,53.00"/>
    <polygon points="126.66,40.38 130.84,53.00 144.58,53.00 133.53,60.76 137.71,73.38 126.66,65.62 115.61,73.38 119.79,60.76 108.74,53.00 122.48,53.00"/>
    <polygon points="190.00,40.38 194.18,53.00 207.92,53.00 196.87,60.76 201.05,73.38 190.00,65.62 178.95,73.38 183.13,60.76 172.08,53.00 185.82,53.00"/>
    <polygon points="253.33,40.38 257.51,53.00 271.25,53.00 260.20,60.76 264.38,73.38 253.33,65.62 242.28,73.38 246.46,60.76 235.41,53.00 249.15,53.00"/>
    <polygon points="316.66,40.38 320.84,53.00 334.58,53.00 323.53,60.76 327.71,73.38 316.66,65.62 305.61,73.38 309.79,60.76 298.74,53.00 312.48,53.00"/>
    <polygon points="31.66,67.31 35.84,79.93 49.58,79.93 38.53,87.69 42.71,100.31 31.66,92.55 20.61,100.31 24.79,87.69 13.74,79.93 27.48,79.93"/>
    <polygon points="95.00,67.31 99.18,79.93 112.92,79.93 101.87,87.69 106.05,100.31 95.00,92.55 83.95,100.31 88.13,87.69 77.08,79.93 90.82,79.93"/>
    <polygon points="158.33,67.31 162.51,79.93 176.25,79.93 165.20,87.69 169.38,100.31 158.33,92.55 147.28,100.31 151.46,87.69 140.41,79.93 154.15,79.93"/>
    <polygon points="221.66,67.31 225.84,79.93 239.58,79.93 228.53,87.69 232.71,100.31 221.66,92.55 210.61,100.31 214.79,87.69 203.74,79.93 217.48,79.93"/>
    <polygon points="285.00,67.31 289.18,79.93 302.92,79.93 291.87,87.69 296.05,100.31 285.00,92.55 273.95,100.31 278.13,87.69 267.08,79.93 280.82,79.93"/>
    <polygon points="348.33,67.31 352.51,79.93 366.25,79.93 355.20,87.69 359.38,100.31 348.33,92.55 337.28,100.31 341.46,87.69 330.41,79.93 344.15,79.93"/>
    <polygon points="63.33,94.23 67.51,106.85 81.25,106.85 70.20,114.61 74.38,127.23 63.33,119.47 52.28,127.23 56.46,114.61 45.41,106.85 59.15,106.85"/>
    <polygon points="126.66,94.23 130.84,106.85 144.58,106.85 133.53,114.61 137.71,127.23 126.66,119.47 115.61,127.23 119.79,114.61 108.74,106.85 122.48,106.85"/>
    <polygon points="190.00,94.23 194.18,106.85 207.92,106.85 196.87,114.61 201.05,127.23 190.00,119.47 178.95,127.23 183.13,114.61 172.08,106.85 185.82,106.85"/>
    <polygon points="253.33,94.23 257.51,106.85 271.25,106.85 260.20,114.61 264.38,127.23 253.33,119.47 242.28,127.23 246.46,114.61 235.41,106.85 249.15,106.85"/>
    <polygon points="316.66,94.23 320.84,106.85 334.58,106.85 323.53,114.61 327.71,127.23 316.66,119.47 305.61,127.23 309.79,114.61 298.74,106.85 312.48,106.85"/>
    <polygon points="31.66,121.15 35.84,133.77 49.58,133.77 38.53,141.53 42.71,154.15 31.66,146.39 20.61,154.15 24.79,141.53 13.74,133.77 27.48,133.77"/>
    <polygon points="95.00,121.15 99.18,133.77 112.92,133.77 101.87,141.53 106.05,154.15 95.00,146.39 83.95,154.15 88.13,141.53 77.08,133.77 90.82,133.77"/>
    <polygon points="158.33,121.15 162.51,133.77 176.25,133.77 165.20,141.53 169.38,154.15 158.33,146.39 147.28,154.15 151.46,141.53 140.41,133.77 154.15,133.77"/>
    <polygon points="221.66,121.15 225.84,133.77 239.58,133.77 228.53,141.53 232.71,154.15 221.66,146.39 210.61,154.15 214.79,141.53 203.74,133.77 217.48,133.77"/>
    <polygon points="285.00,121.15 289.18,133.77 302.92,133.77 291.87,141.53 296.05,154.15 285.00,146.39 273.95,154.15 278.13,141.53 267.08,133.77 280.82,133.77"/>
    <polygon points="348.33,121.15 352.51,133.77 366.25,133.77 355.20,141.53 359.38,154.15 348.33,146.39 337.28,154.15 341.46,141.53 330.41,133.77 344.15,133.77"/>
    <polygon points="63.33,148.08 67.51,160.70 81.25,160.70 70.20,168.46 74.38,181.08 63.33,173.32 52.28,181.08 56.46,168.46 45.41,160.70 59.15,160.70"/>
    <polygon points="126.66,148.08 130.84,160.70 144.58,160.70 133.53,168.46 137.71,181.08 126.66,173.32 115.61,181.08 119.79,168.46 108.74,160.70 122.48,160.70"/>
    <polygon points="190.00,148.08 194.18,160.70 207.92,160.70 196.87,168.46 201.05,181.08 190.00,173.32 178.95,181.08 183.13,168.46 172.08,160.70 185.82,160.70"/>
    <polygon points="253.33,148.08 257.51,160.70 271.25,160.70 260.20,168.46 264.38,181.08 253.33,173.32 242.28,181.08 246.46,168.46 235.41,160.70 249.15,160.70"/>
    <polygon points="316.66,148.08 320.84,160.70 334.58,160.70 323.53,168.46 327.71,181.08 316.66,173.32 305.61,181.08 309.79,168.46 298.74,160.70 312.48,160.70"/>
    <polygon points="31.66,175.00 35.84,187.62 49.58,187.62 38.53,195.38 42.71,208.00 31.66,200.24 20.61,208.00 24.79,195.38 13.74,187.62 27.48,187.62"/>
    <polygon points="95.00,175.00 99.18,187.62 112.92,187.62 101.87,195.38 106.05,208.00 95.00,200.24 83.95,208.00 88.13,195.38 77.08,187.62 90.82,187.62"/>
    <polygon points="158.33,175.00 162.51,187.62 176.25,187.62 165.20,195.38 169.38,208.00 158.33,200.24 147.28,208.00 151.46,195.38 140.41,187.62 154.15,187.62"/>
    <polygon points="221.66,175.00 225.84,187.62 239.58,187.62 228.53,195.38 232.71,208.00 221.66,200.24 210.61,208.00 214.79,195.38 203.74,187.62 217.48,187.62"/>
    <polygon points="285.00,175.00 289.18,187.62 302.92,187.62 291.87,195.38 296.05,208.00 285.00,200.24 273.95,208.00 278.13,195.38 267.08,187.62 280.82,187.62"/>
    <polygon points="348.33,175.00 352.51,187.62 366.25,187.62 355.20,195.38 359.38,208.00 348.33,200.24 337.28,208.00 341.46,195.38 330.41,187.62 344.15,187.62"/>
    <polygon points="63.33,201.92 67.51,214.54 81.25,214.54 70.20,222.30 74.38,234.92 63.33,227.16 52.28,234.92 56.46,222.30 45.41,214.54 59.15,214.54"/>
    <polygon points="126.66,201.92 130.84,214.54 144.58,214.54 133.53,222.30 137.71,234.92 126.66,227.16 115.61,234.92 119.79,222.30 108.74,214.54 122.48,214.54"/>
    <polygon points="190.00,201.92 194.18,214.54 207.92,214.54 196.87,222.30 201.05,234.92 190.00,227.16 178.95,234.92 183.13,222.30 172.08,214.54 185.82,214.54"/>
    <polygon points="253.33,201.92 257.51,214.54 271.25,214.54 260.20,222.30 264.38,234.92 253.33,227.16 242.28,234.92 246.46,222.30 235.41,214.54 249.15,214.54"/>
    <polygon points="316.66,201.92 320.84,214.54 334.58,214.54 323.53,222.30 327.71,234.92 316.66,227.16 305.61,234.92 309.79,222.30 298.74,214.54 312.48,214.54"/>
    <polygon points="31.66,228.85 35.84,241.47 49.58,241.47 38.53,249.23 42.71,261.85 31.66,254.09 20.61,261.85 24.79,249.23 13.74,241.47 27.48,241.47"/>
    <polygon points="95.00,228.85 99.18,241.47 112.92,241.47 101.87,249.23 106.05,261.85 95.00,254.09 83.95,261.85 88.13,249.23 77.08,241.47 90.82,241.47"/>
    <polygon points="158.33,228.85 162.51,241.47 176.25,241.47 165.20,249.23 169.38,261.85 158.33,254.09 147.28,261.85 151.46,249.23 140.41,241.47 154.15,241.47"/>
    <polygon points="221.66,228.85 225.84,241.47 239.58,241.47 228.53,249.23 232.71,261.85 221.66,254.09 210.61,261.85 214.79,249.23 203.74,241.47 217.48,241.47"/>
    <polygon points="285.00,228.85 289.18,241.47 302.92,241.47 291.87,249.23 296.05,261.85 285.00,254.09 273.95,261.85 278.13,249.23 267.08,241.47 280.82,241.47"/>
    <polygon points="348.33,228.85 352.51,241.47 366.25,241.47 355.20,249.23 359.38,261.85 348.33,254.09 337.28,261.85 341.46,249.23 330.41,241.47 344.15,241.47"/>
  </g>
</svg>
